<?xml version="1.0" encoding="UTF-8"?>
<svg id="Layer_1" xmlns="http://www.w3.org/2000/svg" xmlns:xlink="http://www.w3.org/1999/xlink" version="1.1" viewBox="0 0 312.32 220.04">
  <!-- Generator: Adobe Illustrator 30.1.0, SVG Export Plug-In . SVG Version: 2.1.1 Build 136)  -->
  <defs>
    <linearGradient id="linear-gradient" x1="289.73" y1="463.56" x2="361.57" y2="463.56" gradientTransform="translate(-309.44 318.67) rotate(30.82) scale(1 -1)" gradientUnits="userSpaceOnUse">
      <stop offset="0" stop-color="#551c00"/>
      <stop offset="1" stop-color="#9f4700"/>
    </linearGradient>
    <linearGradient id="linear-gradient1" x1="290.91" y1="425.19" x2="392.25" y2="425.19" gradientTransform="translate(-309.44 318.67) rotate(30.82) scale(1 -1)" gradientUnits="userSpaceOnUse">
      <stop offset="0" stop-color="#551c00"/>
      <stop offset="1" stop-color="#9f4700"/>
    </linearGradient>
    <linearGradient id="linear-gradient2" x1="289.44" y1="368.94" x2="368.95" y2="368.94" gradientTransform="translate(-309.44 318.67) rotate(30.82) scale(1 -1)" gradientUnits="userSpaceOnUse">
      <stop offset="0" stop-color="#551c00"/>
      <stop offset="1" stop-color="#9f4700"/>
    </linearGradient>
    <linearGradient id="linear-gradient3" x1="211.94" y1="466.32" x2="291.45" y2="466.32" gradientTransform="translate(-309.44 318.67) rotate(30.82) scale(1 -1)" gradientUnits="userSpaceOnUse">
      <stop offset="0" stop-color="#551c00"/>
      <stop offset="1" stop-color="#9f4700"/>
    </linearGradient>
    <linearGradient id="linear-gradient4" x1="188.65" y1="410.06" x2="289.98" y2="410.06" gradientTransform="translate(-309.44 318.67) rotate(30.82) scale(1 -1)" gradientUnits="userSpaceOnUse">
      <stop offset="0" stop-color="#551c00"/>
      <stop offset="1" stop-color="#9f4700"/>
    </linearGradient>
    <linearGradient id="linear-gradient5" x1="219.26" y1="371.28" x2="291.56" y2="371.28" gradientTransform="translate(-309.44 318.67) rotate(30.82) scale(1 -1)" gradientUnits="userSpaceOnUse">
      <stop offset="0" stop-color="#551c00"/>
      <stop offset="1" stop-color="#9f4700"/>
    </linearGradient>
    <linearGradient id="linear-gradient6" x1="61.69" y1="167.48" x2="250.63" y2="54.78" gradientTransform="translate(0 221.15) scale(1 -1)" gradientUnits="userSpaceOnUse">
      <stop offset="0" stop-color="#551c00"/>
      <stop offset=".86" stop-color="#9f4700"/>
    </linearGradient>
    <linearGradient id="linear-gradient7" x1="100.32" y1="22.41" x2="104.62" y2="19.84" gradientTransform="translate(0 221.15) scale(1 -1)" gradientUnits="userSpaceOnUse">
      <stop offset="0" stop-color="#551c00"/>
      <stop offset="1" stop-color="#9f4700"/>
    </linearGradient>
    <linearGradient id="linear-gradient8" x1="70.27" y1="162.36" x2="242.03" y2="59.91" gradientTransform="translate(0 221.15) scale(1 -1)" gradientUnits="userSpaceOnUse">
      <stop offset="0" stop-color="#fbb03b"/>
      <stop offset="1" stop-color="#ffca5f"/>
    </linearGradient>
    <linearGradient id="linear-gradient9" x1="179.08" y1="10.41" x2="183.37" y2="7.85" gradientTransform="translate(0 221.15) scale(1 -1)" gradientUnits="userSpaceOnUse">
      <stop offset="0" stop-color="#551c00"/>
      <stop offset="1" stop-color="#9f4700"/>
    </linearGradient>
    <linearGradient id="linear-gradient10" x1="51.93" y1="86.25" x2="56.22" y2="83.69" gradientTransform="translate(0 221.15) scale(1 -1)" gradientUnits="userSpaceOnUse">
      <stop offset="0" stop-color="#551c00"/>
      <stop offset="1" stop-color="#9f4700"/>
    </linearGradient>
    <linearGradient id="linear-gradient11" x1="255.74" y1="138.93" x2="260.04" y2="136.37" gradientTransform="translate(0 221.15) scale(1 -1)" gradientUnits="userSpaceOnUse">
      <stop offset="0" stop-color="#551c00"/>
      <stop offset="1" stop-color="#9f4700"/>
    </linearGradient>
    <linearGradient id="linear-gradient12" x1="128.6" y1="214.78" x2="132.89" y2="212.22" gradientTransform="translate(0 221.15) scale(1 -1)" gradientUnits="userSpaceOnUse">
      <stop offset="0" stop-color="#551c00"/>
      <stop offset="1" stop-color="#9f4700"/>
    </linearGradient>
    <linearGradient id="linear-gradient13" x1="243.1" y1="56.36" x2="247.4" y2="53.8" gradientTransform="translate(0 221.15) scale(1 -1)" gradientUnits="userSpaceOnUse">
      <stop offset="0" stop-color="#551c00"/>
      <stop offset="1" stop-color="#9f4700"/>
    </linearGradient>
    <linearGradient id="linear-gradient14" x1="63.64" y1="166.32" x2="67.93" y2="163.76" gradientTransform="translate(0 221.15) scale(1 -1)" gradientUnits="userSpaceOnUse">
      <stop offset="0" stop-color="#551c00"/>
      <stop offset="1" stop-color="#9f4700"/>
    </linearGradient>
    <linearGradient id="linear-gradient15" x1="207.84" y1="202.66" x2="212.14" y2="200.1" gradientTransform="translate(0 221.15) scale(1 -1)" gradientUnits="userSpaceOnUse">
      <stop offset="0" stop-color="#551c00"/>
      <stop offset="1" stop-color="#9f4700"/>
    </linearGradient>
    <linearGradient id="linear-gradient16" x1="141.14" y1="120.1" x2="171.19" y2="102.17" gradientTransform="translate(0 221.15) scale(1 -1)" gradientUnits="userSpaceOnUse">
      <stop offset="0" stop-color="#fbb03b"/>
      <stop offset="1" stop-color="#ffca5f"/>
    </linearGradient>
    <linearGradient id="linear-gradient17" x1="139.65" y1="8.5" x2="143.94" y2="5.94" gradientTransform="translate(0 221.15) scale(1 -1)" gradientUnits="userSpaceOnUse">
      <stop offset="0" stop-color="#551c00"/>
      <stop offset="1" stop-color="#9f4700"/>
    </linearGradient>
    <linearGradient id="linear-gradient18" x1="70.55" y1="49.72" x2="74.85" y2="47.16" gradientTransform="translate(0 221.15) scale(1 -1)" gradientUnits="userSpaceOnUse">
      <stop offset="0" stop-color="#551c00"/>
      <stop offset="1" stop-color="#9f4700"/>
    </linearGradient>
    <linearGradient id="linear-gradient19" x1="50.1" y1="126.13" x2="54.39" y2="123.57" gradientTransform="translate(0 221.15) scale(1 -1)" gradientUnits="userSpaceOnUse">
      <stop offset="0" stop-color="#551c00"/>
      <stop offset="1" stop-color="#9f4700"/>
    </linearGradient>
    <linearGradient id="linear-gradient20" x1="93.96" y1="198.64" x2="98.25" y2="196.08" gradientTransform="translate(0 221.15) scale(1 -1)" gradientUnits="userSpaceOnUse">
      <stop offset="0" stop-color="#551c00"/>
      <stop offset="1" stop-color="#9f4700"/>
    </linearGradient>
    <linearGradient id="linear-gradient21" x1="170.33" y1="216.99" x2="174.63" y2="214.43" gradientTransform="translate(0 221.15) scale(1 -1)" gradientUnits="userSpaceOnUse">
      <stop offset="0" stop-color="#551c00"/>
      <stop offset="1" stop-color="#9f4700"/>
    </linearGradient>
    <linearGradient id="linear-gradient22" x1="239.43" y1="175.78" x2="243.72" y2="173.22" gradientTransform="translate(0 221.15) scale(1 -1)" gradientUnits="userSpaceOnUse">
      <stop offset="0" stop-color="#551c00"/>
      <stop offset="1" stop-color="#9f4700"/>
    </linearGradient>
    <linearGradient id="linear-gradient23" x1="257.76" y1="100.93" x2="262.06" y2="98.37" gradientTransform="translate(0 221.15) scale(1 -1)" gradientUnits="userSpaceOnUse">
      <stop offset="0" stop-color="#551c00"/>
      <stop offset="1" stop-color="#9f4700"/>
    </linearGradient>
    <linearGradient id="linear-gradient24" x1="213.07" y1="26.01" x2="217.36" y2="23.45" gradientTransform="translate(0 221.15) scale(1 -1)" gradientUnits="userSpaceOnUse">
      <stop offset="0" stop-color="#551c00"/>
      <stop offset="1" stop-color="#9f4700"/>
    </linearGradient>
    <linearGradient id="linear-gradient25" x1="310.37" y1="111.57" x2="289.29" y2="111.57" gradientTransform="translate(0 221.15) scale(1 -1)" gradientUnits="userSpaceOnUse">
      <stop offset=".34" stop-color="#551c00"/>
      <stop offset="1" stop-color="#9f4700"/>
    </linearGradient>
    <linearGradient id="linear-gradient26" x1="28" y1="111.13" x2="0" y2="111.13" gradientTransform="translate(0 221.15) scale(1 -1)" gradientUnits="userSpaceOnUse">
      <stop offset="0" stop-color="#7b3617"/>
      <stop offset=".42" stop-color="#7a3516"/>
      <stop offset="1" stop-color="#5f2500"/>
    </linearGradient>
    <linearGradient id="linear-gradient27" x1="-1203.61" y1="-164.12" x2="-1185.8" y2="-164.12" gradientTransform="translate(-142.43 -1084.71) rotate(-90) scale(1 -1)" gradientUnits="userSpaceOnUse">
      <stop offset="0" stop-color="#551c00"/>
      <stop offset=".37" stop-color="#9f4700"/>
    </linearGradient>
  </defs>
  <rect x="13.41" y="104.21" width="294.48" height="10.78" fill="#551c00"/>
  <g id="_x3C_wheel_x3E_">
    <polygon points="252.45 82.55 150.05 113.98 228.39 38.79 252.45 82.55" fill="url(#linear-gradient)"/>
    <polygon points="254.32 130.87 155.05 109.11 252.91 81.7 254.32 130.87" fill="#fffbf6"/>
    <polygon points="232.29 176.22 154.72 108.46 253.92 130.21 232.29 176.22" fill="url(#linear-gradient1)"/>
    <polygon points="188.04 207.08 148.42 100.71 232.88 176.62 188.04 207.08" fill="#fffbf6"/>
    <polygon points="133.45 208.94 152.63 109.09 187.24 206.26 133.45 208.94" fill="url(#linear-gradient2)"/>
    <polygon points="174.46 8.72 155.28 108.57 120.66 11.4 174.46 8.72" fill="url(#linear-gradient3)"/>
    <polygon points="75.62 41.44 153.19 109.21 53.98 87.46 75.62 41.44" fill="url(#linear-gradient4)"/>
    <polygon points="119.86 10.58 159.49 116.95 75.02 41.04 119.86 10.58" fill="#fffbf6"/>
    <polygon points="53.59 86.79 152.86 108.56 55 135.96 53.59 86.79" fill="#fffbf6"/>
    <polygon points="55.33 135.19 158.09 104.08 79.87 179.78 55.33 135.19" fill="url(#linear-gradient5)"/>
    <polygon points="79.67 179.66 158.88 103 133.31 210.28 79.67 179.66" fill="#fffbf6"/>
    <polygon points="229.22 38.34 152.3 117.28 174.71 9.31 229.22 38.34" fill="#fffbf6"/>
    <path d="M156.27,12c17.58,0,34.9,4.79,50.09,13.85,22.48,13.41,38.39,34.77,44.81,60.15,6.41,25.38,2.56,51.74-10.85,74.22-8.85,14.84-21.47,27.09-36.48,35.43-14.58,8.1-31.11,12.38-47.79,12.38-17.58,0-34.91-4.79-50.1-13.85-22.48-13.41-38.39-34.77-44.81-60.15-6.41-25.38-2.56-51.74,10.85-74.22,8.85-14.84,21.47-27.09,36.48-35.43,14.58-8.1,31.11-12.38,47.79-12.38h0M156.26,0C118.8,0,82.27,19.15,61.69,53.67c-31.12,52.17-14.05,119.7,38.12,150.82,17.66,10.53,37.07,15.55,56.25,15.55,37.47,0,73.99-19.15,94.57-53.67,31.12-52.17,14.05-119.7-38.12-150.82C194.85,5.01,175.43,0,156.26,0h0Z" fill="url(#linear-gradient6)"/>
    <g>
      <circle cx="102.47" cy="200.03" r="2.5" fill="#6a2900"/>
      <path d="M102.47,198.27h0c.31,0,.62.09.89.25.83.49,1.1,1.57.61,2.4-.32.53-.88.85-1.51.85-.31,0-.62-.09-.89-.25-.83-.49-1.1-1.57-.61-2.4.32-.53.88-.85,1.51-.85M102.47,197.52c-.85,0-1.68.44-2.15,1.22-.71,1.19-.32,2.72.87,3.43.4.24.84.35,1.28.35.85,0,1.68-.44,2.15-1.22.71-1.19.32-2.72-.87-3.43-.4-.24-.84-.35-1.28-.35h0Z" fill="url(#linear-gradient7)"/>
    </g>
    <path d="M156.26,10v4c17.23,0,34.2,4.69,49.08,13.57,45.46,27.12,60.39,86.16,33.27,131.63-8.67,14.54-21.03,26.54-35.74,34.71-14.28,7.93-30.46,12.12-46.8,12.12-17.23,0-34.2-4.69-49.08-13.57-45.46-27.12-60.39-86.16-33.27-131.63,8.67-14.54,21.03-26.54,35.74-34.71,14.28-7.93,30.46-12.12,46.8-12.13v-4M156.25,10c-34.06,0-67.26,17.41-85.98,48.79-28.29,47.43-12.78,108.82,34.65,137.11,16.06,9.58,33.7,14.13,51.13,14.13,34.06,0,67.26-17.41,85.98-48.79,28.29-47.43,12.78-108.82-34.65-137.11-16.06-9.58-33.7-14.13-51.13-14.13h0Z" fill="url(#linear-gradient8)"/>
    <g>
      <circle cx="181.23" cy="212.02" r="2.5" fill="#6a2900"/>
      <path d="M181.23,210.27h0c.31,0,.62.09.89.25.4.24.69.62.8,1.07.11.45.05.92-.19,1.33-.32.53-.88.85-1.51.85-.31,0-.62-.09-.89-.25-.4-.24-.69-.62-.8-1.07s-.05-.92.19-1.33c.32-.53.88-.85,1.51-.85M181.23,209.52c-.85,0-1.68.44-2.15,1.22-.71,1.19-.32,2.72.87,3.43.4.24.84.35,1.28.35.85,0,1.68-.44,2.15-1.22.71-1.19.32-2.72-.87-3.43-.4-.24-.84-.35-1.28-.35h0Z" fill="url(#linear-gradient9)"/>
    </g>
    <g>
      <circle cx="54.08" cy="136.18" r="2.5" fill="#6a2900"/>
      <path d="M54.08,134.43h0c.31,0,.62.09.89.25.83.49,1.1,1.57.61,2.4-.32.53-.88.85-1.51.85-.31,0-.62-.09-.89-.25-.83-.49-1.1-1.57-.61-2.4.32-.53.88-.85,1.51-.85M54.08,133.68c-.85,0-1.68.44-2.15,1.22-.71,1.19-.32,2.72.87,3.43.4.24.84.35,1.28.35.85,0,1.68-.44,2.15-1.22.71-1.19.32-2.72-.87-3.43-.4-.24-.84-.35-1.28-.35h0Z" fill="url(#linear-gradient10)"/>
    </g>
    <g>
      <circle cx="257.89" cy="83.5" r="2.5" fill="#6a2900"/>
      <path d="M257.89,81.75h0c.31,0,.62.09.89.25.83.49,1.1,1.57.61,2.4-.32.53-.88.85-1.51.85-.31,0-.62-.09-.89-.25-.83-.49-1.1-1.57-.61-2.4.32-.53.88-.85,1.51-.85M257.89,81c-.85,0-1.68.44-2.15,1.22-.71,1.19-.32,2.72.87,3.43.4.24.84.35,1.28.35.85,0,1.68-.44,2.15-1.22.71-1.19.32-2.72-.87-3.43-.4-.24-.84-.35-1.28-.35h0Z" fill="url(#linear-gradient11)"/>
    </g>
    <g>
      <circle cx="130.74" cy="7.65" r="2.5" fill="#6a2900"/>
      <path d="M130.75,5.9h0c.31,0,.62.09.89.25.4.24.69.62.8,1.07.11.45.05.92-.19,1.33-.32.53-.88.85-1.51.85-.31,0-.62-.09-.89-.25-.4-.24-.69-.62-.8-1.07s-.05-.92.19-1.33c.32-.53.88-.85,1.51-.85M130.75,5.15c-.85,0-1.68.44-2.15,1.22-.71,1.19-.32,2.72.87,3.43.4.24.84.35,1.28.35.85,0,1.68-.44,2.15-1.22.71-1.19.32-2.72-.87-3.43-.4-.24-.84-.35-1.28-.35h0Z" fill="url(#linear-gradient12)"/>
    </g>
    <g>
      <circle cx="245.25" cy="166.07" r="2.5" fill="#6a2900"/>
      <path d="M245.25,164.32h0c.31,0,.62.09.89.25.4.24.69.62.8,1.07.11.45.05.92-.19,1.33-.32.53-.88.85-1.51.85-.31,0-.62-.09-.89-.25-.4-.24-.69-.62-.8-1.07s-.05-.92.19-1.33c.32-.53.88-.85,1.51-.85M245.25,163.57c-.85,0-1.68.44-2.15,1.22-.71,1.19-.32,2.72.87,3.43.4.24.84.35,1.28.35.85,0,1.68-.44,2.15-1.22.71-1.19.32-2.72-.87-3.43-.4-.24-.84-.35-1.28-.35h0Z" fill="url(#linear-gradient13)"/>
    </g>
    <g>
      <circle cx="65.79" cy="56.11" r="2.5" fill="#6a2900"/>
      <path d="M65.79,54.36h0c.31,0,.62.09.89.25.4.24.69.62.8,1.07s.05.92-.19,1.33c-.32.53-.88.85-1.51.85-.31,0-.62-.09-.89-.25-.4-.24-.69-.62-.8-1.07s-.05-.92.19-1.33c.32-.53.88-.85,1.51-.85M65.79,53.61c-.85,0-1.68.44-2.15,1.22-.71,1.19-.32,2.72.87,3.43.4.24.84.35,1.28.35.85,0,1.68-.44,2.15-1.22.71-1.19.32-2.72-.87-3.43-.4-.24-.84-.35-1.28-.35h0Z" fill="url(#linear-gradient14)"/>
    </g>
    <g>
      <circle cx="209.99" cy="19.77" r="2.5" fill="#6a2900"/>
      <path d="M209.99,18.02h0c.31,0,.62.09.89.25.4.24.69.62.8,1.07s.05.92-.19,1.33c-.32.53-.88.85-1.51.85-.31,0-.62-.09-.89-.25-.4-.24-.69-.62-.8-1.07s-.05-.92.19-1.33c.32-.53.88-.85,1.51-.85M209.99,17.27c-.85,0-1.68.44-2.15,1.22-.71,1.19-.32,2.72.87,3.43.4.24.84.35,1.28.35.85,0,1.68-.44,2.15-1.22.71-1.19.32-2.72-.87-3.43-.4-.24-.84-.35-1.28-.35h0Z" fill="url(#linear-gradient15)"/>
    </g>
    <g>
      <circle cx="156.17" cy="110.01" r="17.5" fill="#fffbf6"/>
      <path d="M156.18,92.51v2c2.78,0,5.52.76,7.92,2.19,3.56,2.12,6.07,5.5,7.09,9.51s.41,8.18-1.72,11.74c-2.78,4.66-7.89,7.56-13.33,7.56-2.78,0-5.52-.76-7.92-2.19-3.56-2.12-6.07-5.5-7.09-9.51s-.41-8.18,1.72-11.74c2.78-4.66,7.89-7.56,13.33-7.56v-2M156.18,92.51c-5.96,0-11.77,3.05-15.05,8.54-4.95,8.3-2.24,19.04,6.06,23.99,2.81,1.68,5.9,2.47,8.95,2.47,5.96,0,11.77-3.05,15.05-8.54,4.95-8.3,2.24-19.04-6.06-23.99-2.81-1.68-5.9-2.47-8.95-2.47h0Z" fill="url(#linear-gradient16)"/>
    </g>
    <g>
      <circle cx="141.8" cy="213.93" r="2.5" fill="#6a2900"/>
      <path d="M141.8,212.18h0c.31,0,.62.09.89.25.4.24.69.62.8,1.07.11.45.05.92-.19,1.33-.32.53-.88.85-1.51.85-.31,0-.62-.09-.89-.25-.4-.24-.69-.62-.8-1.07s-.05-.92.19-1.33c.32-.53.88-.85,1.51-.85M141.8,211.43c-.85,0-1.68.44-2.15,1.22-.71,1.19-.32,2.72.87,3.43.4.24.84.35,1.28.35.85,0,1.68-.44,2.15-1.22.71-1.19.32-2.72-.87-3.43-.4-.24-.84-.35-1.28-.35h0Z" fill="url(#linear-gradient17)"/>
    </g>
    <g>
      <circle cx="72.7" cy="172.71" r="2.5" fill="#6a2900"/>
      <path d="M72.7,170.96h0c.31,0,.62.09.89.25.83.49,1.1,1.57.61,2.4-.32.53-.88.85-1.51.85-.31,0-.62-.09-.89-.25-.83-.49-1.1-1.57-.61-2.4.32-.53.88-.85,1.51-.85M72.7,170.21c-.85,0-1.68.44-2.15,1.22-.71,1.19-.32,2.72.87,3.43.4.24.84.35,1.28.35.85,0,1.68-.44,2.15-1.22.71-1.19.32-2.72-.87-3.43-.4-.24-.84-.35-1.28-.35h0Z" fill="url(#linear-gradient18)"/>
    </g>
    <g>
      <circle cx="52.24" cy="96.3" r="2.5" fill="#6a2900"/>
      <path d="M52.25,94.55h0c.31,0,.62.09.89.25.83.49,1.1,1.57.61,2.4-.32.53-.88.85-1.51.85-.31,0-.62-.09-.89-.25-.83-.49-1.1-1.57-.61-2.4.32-.53.88-.85,1.51-.85M52.25,93.8c-.85,0-1.68.44-2.15,1.22-.71,1.19-.32,2.72.87,3.43.4.24.84.35,1.28.35.85,0,1.68-.44,2.15-1.22.71-1.19.32-2.72-.87-3.43-.4-.24-.84-.35-1.28-.35h0Z" fill="url(#linear-gradient19)"/>
    </g>
    <g>
      <circle cx="96.1" cy="23.79" r="2.5" fill="#6a2900"/>
      <path d="M96.11,22.04h0c.31,0,.62.09.89.25.4.24.69.62.8,1.07s.05.92-.19,1.33c-.32.53-.88.85-1.51.85-.31,0-.62-.09-.89-.25-.4-.24-.69-.62-.8-1.07-.11-.45-.05-.92.19-1.33.32-.53.88-.85,1.51-.85M96.11,21.29c-.85,0-1.68.44-2.15,1.22-.71,1.19-.32,2.72.87,3.43.4.24.84.35,1.28.35.85,0,1.68-.44,2.15-1.22.71-1.19.32-2.72-.87-3.43-.4-.24-.84-.35-1.28-.35h0Z" fill="url(#linear-gradient20)"/>
    </g>
    <g>
      <circle cx="172.48" cy="5.44" r="2.5" fill="#6a2900"/>
      <path d="M172.48,3.69h0c.31,0,.62.09.89.25.4.24.69.62.8,1.07s.05.92-.19,1.33c-.32.53-.88.85-1.51.85-.31,0-.62-.09-.89-.25-.4-.24-.69-.62-.8-1.07s-.05-.92.19-1.33c.32-.53.88-.85,1.51-.85M172.48,2.94c-.85,0-1.68.44-2.15,1.22-.71,1.19-.32,2.72.87,3.43.4.24.84.35,1.28.35.85,0,1.68-.44,2.15-1.22.71-1.19.32-2.72-.87-3.43-.4-.24-.84-.35-1.28-.35h0Z" fill="url(#linear-gradient21)"/>
    </g>
    <g>
      <circle cx="241.57" cy="46.65" r="2.5" fill="#6a2900"/>
      <path d="M241.58,44.9h0c.31,0,.62.09.89.25.4.24.69.62.8,1.07s.05.92-.19,1.33c-.32.53-.88.85-1.51.85-.31,0-.62-.09-.89-.25-.83-.49-1.1-1.57-.61-2.4.32-.53.88-.85,1.51-.85M241.58,44.15c-.85,0-1.68.44-2.15,1.22-.71,1.19-.32,2.72.87,3.43.4.24.84.35,1.28.35.85,0,1.68-.44,2.15-1.22.71-1.19.32-2.72-.87-3.43-.4-.24-.84-.35-1.28-.35h0Z" fill="url(#linear-gradient22)"/>
    </g>
    <g>
      <circle cx="259.91" cy="121.5" r="2.5" fill="#6a2900"/>
      <path d="M259.91,119.75h0c.31,0,.62.09.89.25.4.24.69.62.8,1.07s.05.92-.19,1.33c-.32.53-.88.85-1.51.85-.31,0-.62-.09-.89-.25-.4-.24-.69-.62-.8-1.07s-.05-.92.19-1.33c.32-.53.88-.85,1.51-.85M259.91,119c-.85,0-1.68.44-2.15,1.22-.71,1.19-.32,2.72.87,3.43.4.24.84.35,1.28.35.85,0,1.68-.44,2.15-1.22.71-1.19.32-2.72-.87-3.43-.4-.24-.84-.35-1.28-.35h0Z" fill="url(#linear-gradient23)"/>
    </g>
    <g>
      <circle cx="215.22" cy="196.42" r="2.5" fill="#6a2900"/>
      <path d="M215.22,194.67h0c.31,0,.62.09.89.25.4.24.69.62.8,1.07s.05.92-.19,1.33c-.32.53-.88.85-1.51.85-.31,0-.62-.09-.89-.25-.4-.24-.69-.62-.8-1.07s-.05-.92.19-1.33c.32-.53.88-.85,1.51-.85M215.22,193.92c-.85,0-1.68.44-2.15,1.22-.71,1.19-.32,2.72.87,3.43.4.24.84.35,1.28.35.85,0,1.68-.44,2.15-1.22.71-1.19.32-2.72-.87-3.43-.4-.24-.84-.35-1.28-.35h0Z" fill="url(#linear-gradient24)"/>
    </g>
  </g>
  <g>
    <path d="M309.76,64.03c-11.32.09-20.48,8.21-20.48,18.23v54.68c0,9.97,9.08,18.07,20.35,18.22.19-30.22,1.48-60.96.13-91.14h0Z" fill="url(#linear-gradient25)"/>
    <rect x="308.43" y="56.19" width="3.89" height="106.81" fill="#551c00"/>
  </g>
  <g>
    <polygon points="72.02 109.99 28 125.28 28 94.71 72.02 109.99" fill="#7b3617"/>
    <path d="M24.5,94.53c-13.54,0-24.5,6.94-24.5,15.49s10.97,15.49,24.5,15.49c1.19,0,2.36-.07,3.5-.18v-30.64c-1.14-.1-2.31-.18-3.5-.18h0Z" fill="url(#linear-gradient26)"/>
    <ellipse cx="21.68" cy="109.99" rx="12.39" ry="8.41" fill="#fbb03b" stroke="url(#linear-gradient27)" stroke-linecap="round" stroke-miterlimit="10"/>
  </g>
</svg>